<svg xmlns="http://www.w3.org/2000/svg" xmlns:xlink="http://www.w3.org/1999/xlink" width="1500" height="265" viewBox="0 0 1500 265">
<defs>
    <style>
      .cls-1 {
        fill-rule: evenodd;
        fill: url(#linear-gradient);
      }
    </style>
    <linearGradient id="linear-gradient" x1="567.129" y1="1178" x2="931.871" y2="1443" gradientUnits="userSpaceOnUse">
      <stop offset="0" stop-color="#d94c81"/>
      <stop offset="1" stop-color="#4c4daf"/>
    </linearGradient>
  </defs>
  <path id="wave" class="cls-1" d="M746.168,1443q-7.083,0-14.232-.33c-98.515-4.48-159.968-52.77-225.029-103.89-71.693-56.33-145.828-114.58-279.7-125.39-90.716-7.33-239.044,33.98-240.531,34.4L-18,1231.11c6.194-1.74,152.775-42.56,246.592-34.98,62.206,5.02,117.785,20.62,169.911,47.69,45.84,23.8,83.07,53.05,119.074,81.34,62.822,49.36,122.159,95.98,215.144,100.21,131.84,6.02,218.521-76.41,295-149.13,55.44-52.72,103.32-98.24,157.84-98.24,90.84,0,174.81,87.65,248.89,164.98,29.62,30.91,57.59,60.11,82.55,79.7l-10.66,13.64c-25.92-20.35-54.31-49.98-84.37-81.35-71.69-74.83-152.94-159.65-236.41-159.65-47.62,0-93.18,43.32-145.94,93.48-37.53,35.69-80.074,76.14-129.785,106.25C856.681,1427.25,803,1443,746.168,1443Z" transform="translate(0 -1178)"/>
</svg>
