<svg
        xmlns="http://www.w3.org/2000/svg"
        xmlns:xlink="http://www.w3.org/1999/xlink"
        width="1500px" height="800px">
    <defs>
        <linearGradient id="PSgrad_0" x1="0%" x2="99.027%" y1="13.917%" y2="0%">
            <stop offset="0%" stop-color="rgb(129,97,176)" stop-opacity="1" />
            <stop offset="100%" stop-color="rgb(76,34,141)" stop-opacity="1" />
        </linearGradient>

    </defs>
    <path fill-rule="evenodd"  fill="url(#PSgrad_0)"
          d="M-0.000,0.000 C12.676,3.214 26.201,7.806 40.871,14.218 C71.125,27.437 93.520,45.758 112.069,67.773 C128.185,70.351 145.097,74.946 163.082,81.425 C234.430,107.121 276.999,181.653 407.928,196.259 C415.244,197.074 422.498,197.456 429.688,197.456 C530.623,197.456 620.186,121.973 722.508,107.669 C736.799,105.670 750.987,104.764 765.088,104.764 C824.156,104.764 881.743,120.615 939.524,138.226 C979.203,110.827 1029.553,87.572 1078.505,87.572 C1093.852,87.572 1109.061,89.860 1123.762,95.016 C1165.479,109.653 1208.611,151.091 1251.445,176.235 C1282.234,171.800 1312.429,165.152 1341.310,156.669 C1352.655,147.012 1363.451,136.705 1373.615,125.810 C1398.947,98.658 1416.055,65.813 1440.593,38.263 C1456.197,20.739 1477.109,8.294 1500.001,1.016 L1500.001,800.007 L-0.000,800.007 L-0.000,0.000 "/>
</svg>

